<svg xmlns:xlink="http://www.w3.org/1999/xlink" xmlns="http://www.w3.org/2000/svg" width="1008" height="273" viewBox="0 0 1008 273" fill="none"><path opacity="0.5" d="M34.6994 71.7825C53.8634 71.7825 69.3988 56.247 69.3988 37.0831C69.3988 17.9191 53.8634 2.38367 34.6994 2.38367C15.5355 2.38367 0 17.9191 0 37.0831C0 56.247 15.5355 71.7825 34.6994 71.7825Z" fill="white"/><path opacity="0.5" d="M236.298 71.7915C255.462 71.7915 270.997 56.2561 270.997 37.0921C270.997 17.9282 255.462 2.3927 236.298 2.3927C217.134 2.3927 201.599 17.9282 201.599 37.0921C201.599 56.2561 217.134 71.7915 236.298 71.7915Z" fill="white"/><path opacity="0.5" d="M135.525 171.218C154.689 171.218 170.224 155.683 170.224 136.519C170.224 117.355 154.689 101.819 135.525 101.819C116.361 101.819 100.825 117.355 100.825 136.519C100.825 155.683 116.361 171.218 135.525 171.218Z" fill="white"/><path opacity="0.5" d="M34.7023 270.619C53.8663 270.619 69.4017 255.084 69.4017 235.92C69.4017 216.756 53.8663 201.221 34.7023 201.221C15.5384 201.221 0.00292969 216.756 0.00292969 235.92C0.00292969 255.084 15.5384 270.619 34.7023 270.619Z" fill="white"/><path opacity="0.5" d="M236.301 270.619C255.465 270.619 271 255.084 271 235.92C271 216.756 255.465 201.221 236.301 201.221C217.137 201.221 201.602 216.756 201.602 235.92C201.602 255.084 217.137 270.619 236.301 270.619Z" fill="white"/><path d="M138.835 201.384C138.557 201.361 138.266 201.338 137.987 201.314C124.86 200.397 112.5 194.809 103.137 185.574L85.5027 168.183C76.0698 158.878 70.4589 146.471 69.2507 133.275C69.2391 133.147 69.2275 133.007 69.2159 132.88C67.5315 116.372 54.0095 103.199 37.4555 101.921C16.1038 100.271 -1.56534 117.964 0.119093 139.327C1.43179 155.962 14.7563 169.507 31.3683 171.052C31.6471 171.076 31.9375 171.099 32.2163 171.122C45.3433 172.04 57.7036 177.628 67.0784 186.863L84.7127 204.253C94.1456 213.558 99.7565 225.965 100.965 239.162C100.976 239.29 100.988 239.429 100.999 239.557C102.684 256.064 116.218 269.238 132.76 270.516C154.112 272.165 171.781 254.473 170.096 233.109C168.784 216.474 155.447 202.929 138.847 201.384H138.835Z" fill="white"/><path d="M239.205 101.932C239.066 101.932 238.938 101.909 238.798 101.897C225.184 100.933 212.324 95.357 202.67 85.7034L186.198 69.2308C176.776 59.8095 171.212 47.2982 170.062 34.0086C170.062 33.8808 170.039 33.7414 170.027 33.6136C168.424 17.0713 154.913 3.81652 138.348 2.4922C116.95 0.784532 99.2109 18.5118 100.919 39.9216C102.243 56.4988 115.486 69.9975 132.04 71.6122C132.168 71.6238 132.307 71.6355 132.435 71.6471C145.713 72.7855 158.224 78.3616 167.657 87.7828L185.535 105.661C194.817 114.943 200.417 127.199 201.811 140.256C201.822 140.384 201.834 140.512 201.857 140.639C203.774 156.961 217.238 169.856 233.617 171.099C254.911 172.702 272.522 155.067 270.896 133.774C269.606 116.953 256.026 103.303 239.205 101.92V101.932Z" fill="white"/><path d="M371.211 75L355.745 52.9538H338.799V75H323.499V17.4989H338.799V39.6274H354.84L369.977 17.4989H388.568L368.331 45.7148L390.213 75H371.211ZM446.332 17.828L463.772 75.329H448.142L444.111 62.0026H413.181L409.15 75.329H393.52L410.96 17.828H446.332ZM434.569 30.414H422.723L417.294 48.6762H439.998L434.569 30.414ZM513.986 17.4989H538.911V75H523.446V30.8254L497.369 75H472.197V17.4989H487.662V61.6736L513.986 17.4989ZM389.72 153.332H397.617V173.733H382.316V166.082H342.583C331.149 166.082 325.391 162.627 323.581 153.496C323.17 151.275 323.005 146.751 323.005 143.954C323.005 141.239 323.005 108.334 323.005 108.334H338.799V148.067C338.799 150.946 341.103 153.332 343.982 153.332H374.419V108.334H389.72V153.332ZM448.835 108.499H473.76V166H458.295V121.825L432.218 166H407.046V108.499H422.511V152.674L448.835 108.499ZM556.411 108.499C572.452 108.499 579.527 114.504 579.527 130.874V142.884C579.527 158.596 574.509 166.082 558.468 166.082H540.205V173.979H524.905V166.082H506.643C490.602 166.082 485.584 158.596 485.584 142.884V130.874C485.584 114.504 492.658 108.499 508.699 108.499H524.905V100.602H540.205V108.499H556.411ZM509.028 153.496H524.905V121.085H509.11C503.763 121.085 501.378 122.648 501.378 130.052V143.707C501.378 149.712 503.352 153.496 509.028 153.496ZM563.732 143.707V130.052C563.732 122.648 561.347 121.085 556 121.085H540.205V153.496H556.082C561.758 153.496 563.732 149.712 563.732 143.707ZM657.551 121.003C657.962 123.224 658.127 127.748 658.127 130.545C658.127 133.342 658.044 137.62 657.633 140.005C656.152 149.465 651.299 153.496 638.548 153.496H606.713V166H591.412V108.417H638.548C649.983 108.417 655.741 111.872 657.551 121.003ZM642.332 134.905V126.267C642.332 123.388 640.029 121.003 637.15 121.003H606.713V140.087H637.15C640.029 140.087 642.332 137.784 642.332 134.905ZM714.343 108.499C730.384 108.499 735.402 115.985 735.402 131.697V143.707C735.402 160.077 728.245 166.082 712.204 166.082H690.816C674.775 166.082 667.701 160.077 667.701 143.707V131.697C667.701 115.985 672.718 108.499 688.76 108.499H714.343ZM719.608 144.53V130.874C719.608 124.869 717.634 121.085 711.957 121.085H691.145C685.469 121.085 683.495 124.869 683.495 130.874V144.53C683.495 151.933 685.88 153.496 691.227 153.496H711.875C717.222 153.496 719.608 151.933 719.608 144.53ZM813.974 130.216L814.057 145.352C814.057 152.098 813.234 154.483 812.823 155.964C811.589 159.995 809.039 163.039 804.679 164.684C802.622 165.424 799.085 166.082 794.478 166.082H747.342V108.499H787.075C791.681 108.499 795.219 109.157 797.275 109.897C801.635 111.46 804.021 114.504 805.419 118.617C805.913 120.016 806.653 122.483 806.653 129.229V130.216H813.974ZM791.352 129.147C791.352 124.622 790.201 121.085 784.278 121.085H762.643V130.216H791.352V129.147ZM791.681 153.496C797.522 153.496 798.756 149.959 798.756 145.352V142.802H762.643V153.496H791.681ZM873.068 108.499L890.508 166.082H874.878L870.847 152.674H839.916L835.886 166.082H820.256L837.695 108.499H873.068ZM861.305 121.085H849.459L844.03 139.347H866.734L861.305 121.085ZM905.838 151.686C901.15 149.712 898.846 145.928 897.941 140.005C897.53 137.537 897.448 133.342 897.448 130.545C897.448 127.748 897.612 123.224 898.024 121.003C899.833 111.872 905.592 108.417 917.026 108.417H964.162V166H948.861V153.414H922.126L914.805 166H897.448L905.838 151.686ZM948.861 140.087V121.003H918.425C915.545 121.003 913.242 123.306 913.242 126.185V134.905C913.242 137.784 915.545 140.087 918.425 140.087H948.861ZM371.293 257.082L355.828 234.954H338.882V257.082H323.581V199.499H338.882V221.627H354.923L370.059 199.499H388.65L368.414 227.715L390.295 257.082H371.293ZM446.656 199.499L464.095 257.082H448.465L444.435 243.674H413.504L409.473 257.082H393.844L411.283 199.499H446.656ZM434.892 212.085H423.047L417.617 230.347H440.322L434.892 212.085ZM540.746 199.499C556.787 199.499 563.862 205.504 563.862 221.874V233.884C563.862 249.596 558.844 257.082 542.803 257.082H524.54V264.979H509.24V257.082H490.978C474.936 257.082 469.918 249.596 469.918 233.884V221.874C469.918 205.504 476.993 199.499 493.034 199.499H509.24V191.602H524.54V199.499H540.746ZM493.363 244.496H509.24V212.085H493.445C488.098 212.085 485.713 213.648 485.713 221.052V234.707C485.713 240.712 487.687 244.496 493.363 244.496ZM548.067 234.707V221.052C548.067 213.648 545.682 212.085 540.335 212.085H524.54V244.496H540.417C546.093 244.496 548.067 240.712 548.067 234.707ZM642.544 212.085H591.13V221.956H634.564V234.542H591.13V244.496H642.544V257.082H575.829V199.499H642.544V212.085ZM724.175 244.496H732.072V264.979H716.689V257.082H665.111V264.979H649.728L649.564 244.496H657.379C657.379 240.054 657.379 224.013 657.379 221.627C657.379 218.83 657.625 214.306 658.037 212.085C659.846 202.954 665.605 199.499 677.039 199.499H724.175V244.496ZM673.173 217.267V244.496H708.792V212.085H678.438C675.558 212.085 673.173 214.388 673.173 217.267ZM807.695 212.003C808.106 214.224 808.271 218.748 808.271 221.545C808.271 224.342 808.188 228.62 807.777 231.005C806.296 240.465 801.443 244.496 788.692 244.496H756.857V257H741.556V199.417H788.692C800.127 199.417 805.885 202.872 807.695 212.003ZM792.476 225.905V217.267C792.476 214.388 790.173 212.003 787.294 212.003H756.857V231.087H787.294C790.173 231.087 792.476 228.784 792.476 225.905ZM863.99 199.499L881.43 257.082H865.8L861.769 243.674H830.839L826.808 257.082H811.178L828.618 199.499H863.99ZM852.227 212.085H840.381L834.952 230.347H857.656L852.227 212.085Z" fill="white"/></svg>