<svg xmlns:xlink="http://www.w3.org/1999/xlink" xmlns="http://www.w3.org/2000/svg" width="219" height="67" viewBox="0 0 219 67" fill="none"> <rect width="218.37" height="67" rx="9.92593" fill="white"/> <g clip-path="url(#clip0_1177_379)"> <path d="M26.8292 17.0776V29.9714H23.6496V20.4595H18.0682V29.9714H14.8887V17.0776H26.8292Z" fill="#001B71"/> <path d="M42.7949 20.7585C43.1518 21.5946 43.3328 22.5106 43.3328 23.5119C43.3328 24.5131 43.1518 25.4292 42.7949 26.2654C42.4381 27.1015 41.9588 27.8151 41.357 28.417C40.7552 29.0188 40.0628 29.4875 39.2799 29.8177C38.497 30.1532 37.6768 30.3183 36.8247 30.3183C35.8713 30.3183 35.0618 30.1532 34.3854 29.8283C33.7091 29.5034 33.2617 29.0987 33.0487 28.614V35.298H29.8691V17.0783H32.9475V18.4311C33.1658 17.9464 33.6185 17.5417 34.3109 17.2168C35.0032 16.8919 35.8234 16.7268 36.7767 16.7268C37.6449 16.7268 38.4757 16.8919 39.2692 17.2168C40.0628 17.5417 40.7605 18.005 41.357 18.6068C41.9588 19.2086 42.4381 19.9276 42.7949 20.7585ZM39.8551 24.9019C40.0362 24.4759 40.132 24.0125 40.132 23.5119C40.132 23.0113 40.0415 22.5533 39.8551 22.1325C39.6687 21.7171 39.4183 21.355 39.0935 21.0567C38.7686 20.7585 38.3745 20.5241 37.9165 20.3537C37.4585 20.1886 36.9525 20.1034 36.4039 20.1034C35.6051 20.1034 34.8914 20.2685 34.2789 20.5933C33.6611 20.9182 33.2511 21.323 33.054 21.8076V25.2375C33.2564 25.7221 33.6611 26.1269 34.2789 26.4518C34.8967 26.7766 35.6051 26.9417 36.4039 26.9417C36.9525 26.9417 37.4585 26.8565 37.9165 26.6914C38.3745 26.5263 38.7686 26.292 39.0935 25.9884C39.4183 25.6902 39.674 25.328 39.8551 24.9019Z" fill="#001B71"/> <path d="M48.7195 17.0776V24.8161L54.5513 17.0776H57.7308V29.9714H54.5992V22.2383L48.7674 29.9714H45.5879V17.0776H48.7195Z" fill="#001B71"/> <path d="M73.6001 23.5385C73.6001 24.5238 73.4135 25.4292 73.0517 26.2547C72.6839 27.0802 72.1886 27.7939 71.5603 28.3957C70.932 28.9975 70.2129 29.4662 69.3925 29.807C68.5726 30.1479 67.7096 30.3183 66.7884 30.3183C65.8723 30.3183 65.0042 30.1479 64.184 29.807C63.3638 29.4662 62.6448 28.9922 62.0163 28.3957C61.3932 27.7939 60.8926 27.0802 60.5251 26.2547C60.1577 25.4292 59.9766 24.5238 59.9766 23.5385C59.9766 22.5692 60.163 21.6692 60.5251 20.833C60.8926 19.9968 61.3879 19.2779 62.0163 18.6654C62.6448 18.0583 63.3638 17.5789 64.184 17.2381C64.9988 16.8972 65.8668 16.7268 66.7884 16.7268C67.7041 16.7268 68.5726 16.8972 69.3925 17.2381C70.2129 17.5789 70.932 18.0583 71.5603 18.6654C72.1832 19.2725 72.6839 19.9968 73.0517 20.833C73.4135 21.6692 73.6001 22.5692 73.6001 23.5385ZM63.4597 22.1485C63.2733 22.5746 63.1827 23.0379 63.1827 23.5385C63.1827 24.0392 63.2733 24.4972 63.4597 24.9179C63.6407 25.3333 63.8964 25.6955 64.2212 25.9937C64.5462 26.292 64.9298 26.5263 65.3715 26.6967C65.8137 26.8619 66.2822 26.9471 66.783 26.9471C67.2837 26.9471 67.7522 26.8619 68.1835 26.6967C68.6148 26.5316 68.9984 26.2973 69.3235 25.9937C69.6481 25.6955 69.9091 25.3333 70.1007 24.9179C70.2928 24.5025 70.3886 24.0392 70.3886 23.5385C70.3886 23.0379 70.2928 22.5746 70.1007 22.1485C69.9091 21.7224 69.6481 21.3603 69.3235 21.062C68.9984 20.7638 68.6203 20.5295 68.1835 20.359C67.7468 20.1939 67.2837 20.1087 66.783 20.1087C66.2822 20.1087 65.8082 20.1939 65.3715 20.359C64.9298 20.5241 64.5462 20.7585 64.2212 21.062C63.8964 21.3603 63.6407 21.7224 63.4597 22.1485Z" fill="#001B71"/> <path d="M88.7268 20.7585C89.0837 21.5946 89.2648 22.5106 89.2648 23.5119C89.2648 24.5131 89.0837 25.4292 88.7268 26.2654C88.37 27.1015 87.8906 27.8151 87.2885 28.417C86.687 29.0188 85.9947 29.4875 85.2116 29.8177C84.4289 30.1532 83.6085 30.3183 82.7564 30.3183C81.803 30.3183 80.9935 30.1532 80.3171 29.8283C79.6411 29.5034 79.1935 29.0987 78.9806 28.614V35.298H75.8008V17.0783H78.8793V18.4311C79.0977 17.9464 79.5503 17.5417 80.2426 17.2168C80.935 16.8919 81.7553 16.7268 82.7087 16.7268C83.5768 16.7268 84.4076 16.8919 85.2011 17.2168C85.9947 17.5417 86.6925 18.005 87.2885 18.6068C87.8851 19.2086 88.3645 19.9276 88.7268 20.7585ZM85.7818 24.9019C85.9624 24.4759 86.0587 24.0125 86.0587 23.5119C86.0587 23.0113 85.9679 22.5533 85.7818 22.1325C85.5952 21.7171 85.3451 21.355 85.02 21.0567C84.6949 20.7585 84.3008 20.5241 83.8428 20.3537C83.3852 20.1886 82.879 20.1034 82.3306 20.1034C81.5315 20.1034 80.8178 20.2685 80.2054 20.5933C79.5875 20.9182 79.1776 21.323 78.9806 21.8076V25.2375C79.183 25.7221 79.5875 26.1269 80.2054 26.4518C80.8233 26.7766 81.5315 26.9417 82.3306 26.9417C82.879 26.9417 83.3852 26.8565 83.8428 26.6914C84.3008 26.5263 84.6949 26.292 85.02 25.9884C85.3451 25.6848 85.6006 25.328 85.7818 24.9019Z" fill="#001B71"/> <path d="M94.6375 17.0776V24.8161L100.469 17.0776H103.649V29.9714H100.517V22.2383L94.6851 29.9714H91.5059V17.0776H94.6375Z" fill="#001B71"/> <path d="M116.906 20.4595H112.922V29.9714H109.742V20.4595H105.764V17.0776H116.906V20.4595Z" fill="#001B71"/> <path d="M125.34 27.117C126.138 27.117 126.911 26.9733 127.641 26.6803C128.376 26.3874 128.924 25.9986 129.291 25.514L130.266 27.9692C129.867 28.6349 129.228 29.1941 128.349 29.6468C127.47 30.0995 126.432 30.3232 125.233 30.3232C124.248 30.3232 123.337 30.1634 122.491 29.8492C121.649 29.5296 120.919 29.0823 120.302 28.4964C119.684 27.9106 119.199 27.2023 118.848 26.3714C118.496 25.5352 118.32 24.5926 118.32 23.5434C118.32 22.6273 118.475 21.7593 118.784 20.9391C119.093 20.1242 119.535 19.3999 120.11 18.7715C120.685 18.1484 121.377 17.6477 122.187 17.2803C122.996 16.9128 123.907 16.7317 124.929 16.7317C125.883 16.7317 126.746 16.9181 127.518 17.2962C128.296 17.669 128.956 18.1697 129.494 18.7981C130.037 19.4266 130.458 20.1455 130.756 20.9657C131.054 21.7859 131.209 22.6433 131.209 23.5434C131.209 23.7298 131.204 23.9215 131.198 24.1292C131.188 24.3369 131.166 24.518 131.134 24.6672H121.575C121.723 25.5193 122.139 26.1424 122.826 26.5312C123.519 26.92 124.355 27.117 125.34 27.117ZM127.971 22.0629C127.87 21.3811 127.534 20.8592 126.97 20.497C126.4 20.1402 125.723 19.9592 124.94 19.9592C124.157 19.9592 123.455 20.1402 122.837 20.497C122.219 20.8592 121.846 21.3758 121.713 22.0629H127.971Z" fill="#001B71"/> <path d="M143.796 20.4595H139.812V29.9714H136.638V20.4595H132.654V17.0776H143.796V20.4595Z" fill="#001B71"/> <path d="M149.995 19.7195C149.68 19.7195 149.393 19.7674 149.132 19.8633C148.866 19.9592 148.626 20.087 148.413 20.2414C148.2 20.3959 148.003 20.5769 147.827 20.7793C147.651 20.9817 147.502 21.2001 147.369 21.4291L146.234 19.4852C146.331 19.1124 146.495 18.7609 146.73 18.4307C146.964 18.1005 147.252 17.8129 147.593 17.5679C147.934 17.3229 148.328 17.1258 148.775 16.982C149.217 16.8382 149.702 16.7637 150.218 16.7637C150.889 16.7637 151.486 16.8649 152.002 17.0672C152.519 17.2696 152.95 17.5519 153.302 17.9141C153.648 18.2762 153.915 18.6969 154.096 19.1763C154.276 19.6556 154.367 20.1722 154.367 20.7261C154.367 21.1947 154.314 21.6262 154.207 22.0149C154.101 22.4037 153.941 22.7872 153.728 23.16C153.515 23.5328 153.254 23.9109 152.945 24.2944C152.631 24.6778 152.274 25.0986 151.864 25.5566L150.57 27.0159H154.623V29.9717H146.336V27.6816L150.027 23.6659C150.288 23.3783 150.516 23.128 150.708 22.9097C150.9 22.6913 151.06 22.4889 151.187 22.2865C151.315 22.0841 151.411 21.8978 151.475 21.7114C151.539 21.525 151.577 21.3173 151.577 21.0882C151.577 20.7048 151.433 20.3799 151.15 20.1136C150.857 19.8526 150.479 19.7195 149.995 19.7195Z" fill="#EA0029"/> <path d="M160.102 17.259C160.928 16.9288 161.796 16.7637 162.717 16.7637C163.633 16.7637 164.501 16.9288 165.332 17.259C166.158 17.5892 166.882 18.0525 167.5 18.649C168.123 19.2455 168.613 19.9592 168.975 20.79C169.337 21.6208 169.518 22.5316 169.518 23.5221C169.518 24.5234 169.337 25.4341 168.975 26.2596C168.613 27.0851 168.123 27.7988 167.5 28.3952C166.877 28.9917 166.158 29.4551 165.332 29.7853C164.506 30.1155 163.633 30.2806 162.717 30.2806C161.801 30.2806 160.928 30.1155 160.102 29.7853C159.277 29.4551 158.552 28.9917 157.934 28.3952C157.312 27.7988 156.821 27.0851 156.459 26.2596C156.097 25.4341 155.916 24.5234 155.916 23.5221C155.916 22.5316 156.097 21.6208 156.459 20.79C156.821 19.9592 157.312 19.2455 157.934 18.649C158.552 18.0578 159.277 17.5945 160.102 17.259ZM162.717 27.3248C163.271 27.3248 163.793 27.2342 164.283 27.0425C164.773 26.8561 165.194 26.5951 165.551 26.2649C165.907 25.9347 166.184 25.5353 166.392 25.0719C166.594 24.6086 166.701 24.092 166.701 23.5275C166.701 22.9736 166.6 22.4623 166.392 21.9883C166.184 21.5196 165.907 21.1202 165.551 20.7846C165.194 20.4545 164.773 20.1935 164.283 20.0071C163.793 19.8207 163.271 19.7248 162.717 19.7248C162.152 19.7248 161.625 19.8207 161.146 20.0071C160.667 20.1935 160.246 20.4545 159.889 20.7846C159.533 21.1149 159.25 21.5196 159.048 21.9883C158.845 22.457 158.739 22.9736 158.739 23.5275C158.739 24.0973 158.84 24.6086 159.048 25.0719C159.25 25.5353 159.533 25.9347 159.889 26.2649C160.246 26.5951 160.662 26.8561 161.146 27.0425C161.625 27.2289 162.148 27.3248 162.717 27.3248Z" fill="#EA0029"/> <path d="M174.029 27.3352C174.605 27.3352 175.073 27.1967 175.425 26.9198C175.782 26.6428 175.958 26.27 175.958 25.8013C175.958 25.3806 175.798 25.045 175.478 24.8001C175.158 24.5551 174.732 24.4326 174.189 24.4326C173.817 24.4326 173.497 24.4752 173.225 24.5604C172.953 24.6456 172.751 24.7362 172.623 24.832L172.171 22.8136L174.386 20.0388H170.818V17.0776H178.045V19.1867L175.845 21.8869C176.16 21.9614 176.485 22.0839 176.826 22.2543C177.166 22.4301 177.481 22.6697 177.773 22.9733C178.061 23.2822 178.301 23.6657 178.487 24.1343C178.674 24.603 178.764 25.1675 178.764 25.828C178.764 26.4404 178.652 27.0156 178.429 27.5588C178.205 28.0968 177.891 28.5707 177.475 28.9755C177.06 29.3803 176.564 29.6945 175.979 29.9289C175.393 30.1632 174.743 30.2803 174.024 30.2803C173.481 30.2803 172.996 30.2218 172.565 30.0993C172.134 29.9768 171.755 29.8223 171.43 29.62C171.106 29.4229 170.834 29.2045 170.621 28.9595C170.402 28.7199 170.248 28.4749 170.152 28.2193L170.802 25.8386C171.148 26.2593 171.574 26.6109 172.08 26.8931C172.592 27.1914 173.241 27.3352 174.029 27.3352Z" fill="#EA0029"/> <path d="M184.246 17.259C185.072 16.9288 185.94 16.7637 186.861 16.7637C187.777 16.7637 188.645 16.9288 189.476 17.259C190.302 17.5892 191.026 18.0525 191.644 18.649C192.267 19.2455 192.757 19.9592 193.119 20.79C193.481 21.6208 193.662 22.5316 193.662 23.5221C193.662 24.5234 193.481 25.4341 193.119 26.2596C192.757 27.0851 192.267 27.7988 191.644 28.3952C191.02 28.9917 190.302 29.4551 189.476 29.7853C188.651 30.1155 187.783 30.2806 186.861 30.2806C185.945 30.2806 185.072 30.1155 184.246 29.7853C183.421 29.4551 182.696 28.9917 182.073 28.3952C181.45 27.7988 180.96 27.0851 180.598 26.2596C180.236 25.4341 180.055 24.5234 180.055 23.5221C180.055 22.5316 180.236 21.6208 180.598 20.79C180.96 19.9592 181.45 19.2455 182.073 18.649C182.696 18.0578 183.421 17.5945 184.246 17.259ZM186.861 27.3248C187.415 27.3248 187.937 27.2342 188.427 27.0425C188.917 26.8561 189.337 26.5951 189.694 26.2649C190.051 25.9347 190.333 25.5353 190.536 25.0719C190.738 24.6086 190.845 24.092 190.845 23.5275C190.845 22.9736 190.743 22.4623 190.536 21.9883C190.333 21.5196 190.051 21.1202 189.694 20.7846C189.337 20.4545 188.917 20.1935 188.427 20.0071C187.937 19.8207 187.415 19.7248 186.861 19.7248C186.297 19.7248 185.769 19.8207 185.29 20.0071C184.805 20.1935 184.39 20.4545 184.033 20.7846C183.676 21.1149 183.399 21.5196 183.192 21.9883C182.984 22.457 182.883 22.9736 182.883 23.5275C182.883 24.0973 182.984 24.6086 183.192 25.0719C183.399 25.5353 183.676 25.9347 184.033 26.2649C184.39 26.5951 184.805 26.8561 185.29 27.0425C185.769 27.2289 186.291 27.3248 186.861 27.3248Z" fill="#EA0029"/> <path d="M200.505 14.8889H197.923L194.945 20.0443H197.523L200.505 14.8889Z" fill="#EA0029"/> <path d="M197.922 14.8889H200.505L203.482 20.0443H200.904L197.922 14.8889Z" fill="#EA0029"/> <path d="M24.0811 42.9238V46.7531L26.9676 42.9238H28.5441V49.3095H26.9943V45.4802L24.1024 49.3095H22.5312V42.9238H24.0811Z" fill="#EA0029"/> <path d="M30.1687 47.6372C30.3019 47.4135 30.4297 47.1632 30.5522 46.8809C30.6747 46.5987 30.7865 46.2898 30.8877 45.9435C30.9889 45.6027 31.0635 45.2299 31.1221 44.8358C31.1806 44.4417 31.2073 44.0156 31.2073 43.5576V42.9238H35.8194V47.6318H36.7142V51.0031H35.191V49.3042H31.0369V51.0031H29.5137V47.6318H30.1687V47.6372ZM34.243 47.6372V44.6015H32.6186C32.5441 45.3204 32.4322 45.9223 32.2831 46.4069C32.134 46.8916 31.9742 47.3017 31.7984 47.6372H34.243Z" fill="#EA0029"/> <path d="M40.8533 47.8926C41.2474 47.8926 41.6308 47.818 41.993 47.6742C42.3552 47.5305 42.6268 47.3387 42.8132 47.099L43.2979 48.3133C43.1008 48.6436 42.7813 48.9205 42.3498 49.1442C41.9131 49.3679 41.4019 49.4797 40.8054 49.4797C40.3154 49.4797 39.868 49.3998 39.4473 49.2454C39.0318 49.0909 38.6697 48.8672 38.3608 48.5743C38.0519 48.2814 37.8175 47.9352 37.6418 47.5198C37.4661 47.1097 37.3809 46.6411 37.3809 46.1191C37.3809 45.6664 37.4554 45.235 37.6099 44.8303C37.7643 44.4255 37.9827 44.0687 38.265 43.7598C38.5525 43.4509 38.8934 43.2059 39.2928 43.0248C39.6923 42.8437 40.1449 42.7532 40.6509 42.7532C41.1196 42.7532 41.551 42.8437 41.9344 43.0302C42.3179 43.2165 42.6427 43.4668 42.9144 43.7757C43.1807 44.0846 43.3937 44.4415 43.5428 44.8463C43.692 45.251 43.7665 45.6771 43.7665 46.1244C43.7665 46.215 43.7665 46.3108 43.7612 46.4173C43.7558 46.5185 43.7452 46.6091 43.7292 46.6836H38.9946C39.0691 47.1044 39.2769 47.4133 39.6124 47.605C39.9532 47.7967 40.3633 47.8926 40.8533 47.8926ZM42.1528 45.3895C42.1049 45.0486 41.9397 44.793 41.6575 44.6172C41.3752 44.4415 41.0397 44.3509 40.6562 44.3509C40.2728 44.3509 39.9213 44.4415 39.6124 44.6172C39.3088 44.793 39.1224 45.054 39.0532 45.3895H42.1528Z" fill="#EA0029"/> <path d="M51.3445 44.7451C51.5202 45.1605 51.6107 45.6131 51.6107 46.1084C51.6107 46.6037 51.5202 47.0618 51.3445 47.4719C51.1687 47.8873 50.929 48.2388 50.6308 48.537C50.3326 48.8353 49.9917 49.0643 49.6029 49.2294C49.2141 49.3945 48.8094 49.4797 48.3886 49.4797C47.9146 49.4797 47.5152 49.3998 47.1797 49.24C46.8442 49.0803 46.6258 48.8779 46.5139 48.6382V51.9456H44.9375V42.9236H46.4607V43.5947C46.5672 43.355 46.7909 43.1526 47.1371 42.9928C47.4779 42.8331 47.888 42.7532 48.3567 42.7532C48.7881 42.7532 49.1982 42.8331 49.5923 42.9928C49.9864 43.1526 50.3272 43.3816 50.6255 43.6799C50.929 43.9781 51.1634 44.335 51.3445 44.7451ZM49.8852 46.7955C49.9758 46.5824 50.0237 46.3535 50.0237 46.1084C50.0237 45.8635 49.9758 45.6345 49.8852 45.4268C49.7947 45.219 49.6669 45.0433 49.507 44.8941C49.3473 44.7451 49.1502 44.6279 48.9265 44.548C48.6975 44.4681 48.4472 44.4255 48.1756 44.4255C47.7815 44.4255 47.43 44.5054 47.1211 44.6652C46.8122 44.8249 46.6098 45.0273 46.5139 45.267V46.9659C46.6151 47.2056 46.8175 47.4079 47.1211 47.5677C47.4247 47.7275 47.7762 47.8074 48.1756 47.8074C48.4472 47.8074 48.6975 47.7648 48.9265 47.6849C49.1556 47.605 49.3473 47.4878 49.507 47.3387C49.6722 47.1896 49.7947 47.0085 49.8852 46.7955Z" fill="#EA0029"/> <path d="M52.7022 43.8774C52.8194 43.6963 52.9631 43.5365 53.1442 43.3927C53.32 43.2542 53.5171 43.137 53.7354 43.0412C53.9484 42.9453 54.1774 42.8761 54.4224 42.8228C54.6674 42.7749 54.9124 42.7483 55.1574 42.7483C55.5781 42.7483 55.9616 42.8069 56.3024 42.9187C56.6433 43.0358 56.9415 43.201 57.1865 43.414C57.4315 43.627 57.6286 43.8933 57.7617 44.2129C57.9002 44.5324 57.9641 44.8946 57.9641 45.2994V49.3044H56.4409V48.7451C56.2864 48.9848 56.0415 49.1659 55.7113 49.2884C55.3811 49.4109 55.0402 49.4748 54.694 49.4748C54.3532 49.4748 54.0443 49.4269 53.762 49.3257C53.4797 49.2245 53.2348 49.086 53.0271 48.9103C52.814 48.7345 52.6542 48.5161 52.5371 48.2552C52.4199 47.9942 52.3613 47.7013 52.3613 47.3817C52.3613 47.0409 52.4306 46.7426 52.5637 46.4817C52.7022 46.2207 52.8833 46.0024 53.1176 45.8266C53.3466 45.6508 53.6129 45.5124 53.9165 45.4218C54.2201 45.3313 54.529 45.2834 54.8538 45.2834C55.2692 45.2834 55.6048 45.3313 55.8657 45.4272C56.1267 45.523 56.3024 45.6242 56.393 45.7307V45.5656C56.393 45.1928 56.2705 44.8946 56.0255 44.6709C55.7805 44.4472 55.4237 44.3353 54.955 44.3353C54.5502 44.3353 54.1828 44.4153 53.8579 44.5697C53.533 44.7241 53.272 44.9265 53.0803 45.1662L52.7022 43.8774ZM56.393 47.0143C56.3291 46.8971 56.1799 46.7959 55.9616 46.7107C55.7379 46.6255 55.4822 46.5829 55.1947 46.5829C54.7792 46.5829 54.4703 46.6468 54.2626 46.7799C54.0549 46.9131 53.9537 47.0835 53.9537 47.3019C53.9537 47.5149 54.0603 47.6907 54.268 47.8185C54.481 47.9463 54.7846 48.0102 55.1787 48.0102C55.4663 48.0102 55.7219 47.9569 55.9456 47.8557C56.1693 47.7545 56.3184 47.6267 56.393 47.4776V47.0143Z" fill="#EA0029"/> <path d="M65.1973 42.9238H66.7209L67.7219 49.3095H66.1616L65.6077 45.9382L64.1163 49.3095H62.8541L61.3682 45.9382L60.7984 49.3095H59.1953L60.1859 42.9238H61.6025L63.3974 47.0034L65.1973 42.9238Z" fill="#EA0029"/> <path d="M70.548 42.9238V46.7531L73.4344 42.9238H75.0112V49.3095H73.4612V45.4802L70.5748 49.3095H68.998V42.9238H70.548Z" fill="#EA0029"/> <path d="M85.0299 48.34C84.8379 48.6542 84.5292 48.9205 84.0979 49.1442C83.6666 49.3679 83.1658 49.4797 82.5961 49.4797C82.1484 49.4797 81.7281 49.3945 81.3231 49.2294C80.9236 49.0643 80.5667 48.8353 80.258 48.537C79.9489 48.2388 79.7042 47.8819 79.5176 47.4719C79.3364 47.0618 79.2461 46.6037 79.2461 46.1084C79.2461 45.6131 79.3364 45.1551 79.5176 44.7451C79.6987 44.3296 79.9439 43.9781 80.258 43.6799C80.5722 43.3816 80.9236 43.1526 81.3231 42.9928C81.7226 42.8331 82.1484 42.7532 82.5961 42.7532C83.1658 42.7532 83.6611 42.865 84.0765 43.0887C84.4919 43.3124 84.7957 43.5787 84.9763 43.8822L84.5292 45.1977C84.3639 45.0007 84.1297 44.8196 83.821 44.6652C83.5172 44.5107 83.1658 44.4308 82.7663 44.4308C82.1857 44.4308 81.7281 44.5853 81.3762 44.8941C81.0303 45.2031 80.8546 45.6131 80.8546 46.1138C80.8546 46.6197 81.0303 47.0245 81.3762 47.3387C81.7226 47.653 82.1857 47.8074 82.7663 47.8074C83.1713 47.8074 83.5281 47.7275 83.8314 47.5624C84.1351 47.3973 84.3748 47.2162 84.5505 47.0192L85.0299 48.34Z" fill="#EA0029"/> <path d="M91.1501 44.5961H89.1798V49.3095H87.6086V44.5961H85.6328V42.9238H91.1501V44.5961Z" fill="#EA0029"/> <path d="M92.091 43.8774C92.2081 43.6963 92.352 43.5365 92.5332 43.3927C92.7088 43.2542 92.9059 43.137 93.1243 43.0412C93.3372 42.9453 93.5659 42.8761 93.8111 42.8228C94.0563 42.7749 94.301 42.7483 94.5461 42.7483C94.967 42.7483 95.3501 42.8069 95.6911 42.9187C96.032 43.0358 96.3303 43.201 96.575 43.414C96.8202 43.627 97.0172 43.8933 97.1502 44.2129C97.2887 44.5324 97.3527 44.8946 97.3527 45.2994V49.3044H95.8296V48.7451C95.6697 48.9848 95.43 49.1659 95.1 49.2884C94.77 49.4109 94.429 49.4748 94.0826 49.4748C93.7416 49.4748 93.4329 49.4269 93.1506 49.3257C92.8687 49.2245 92.6235 49.086 92.4155 48.9103C92.2026 48.7345 92.0428 48.5161 91.9257 48.2552C91.8086 47.9942 91.75 47.7013 91.75 47.3817C91.75 47.0409 91.8195 46.7426 91.9525 46.4817C92.091 46.2207 92.2721 46.0024 92.5064 45.8266C92.7351 45.6508 93.0017 45.5124 93.3054 45.4218C93.6086 45.3313 93.9178 45.2834 94.2424 45.2834C94.6578 45.2834 94.9933 45.3313 95.2544 45.4272C95.5154 45.523 95.6911 45.6242 95.7819 45.7307V45.5656C95.7819 45.1928 95.6593 44.8946 95.4142 44.6709C95.169 44.4472 94.8122 44.3353 94.3437 44.3353C93.9392 44.3353 93.5714 44.4153 93.2468 44.5697C92.9218 44.7241 92.6607 44.9265 92.4691 45.1662L92.091 43.8774ZM95.7869 47.0143C95.7229 46.8971 95.574 46.7959 95.3556 46.7107C95.1318 46.6255 94.8762 46.5829 94.5888 46.5829C94.1734 46.5829 93.8642 46.6468 93.6622 46.7799C93.4543 46.9131 93.353 47.0835 93.353 47.3019C93.353 47.5149 93.4597 47.6907 93.6672 47.8185C93.8806 47.9463 94.1838 48.0102 94.5779 48.0102C94.8658 48.0102 95.1213 47.9569 95.3452 47.8557C95.5685 47.7545 95.7179 47.6267 95.7923 47.4776V47.0143H95.7869Z" fill="#EA0029"/> <path d="M100.486 42.9238V45.1926H103.288V42.9238H104.859V49.3095H103.288V46.8649H100.486V49.3095H98.9102V42.9238H100.486Z" fill="#EA0029"/> <path d="M112.776 46.1244C112.776 46.6144 112.686 47.0618 112.505 47.4665C112.324 47.8766 112.078 48.2281 111.77 48.5264C111.461 48.8246 111.104 49.059 110.699 49.2241C110.294 49.3945 109.863 49.4797 109.41 49.4797C108.958 49.4797 108.526 49.3945 108.122 49.2241C107.717 49.0537 107.36 48.8193 107.051 48.5264C106.742 48.2281 106.497 47.8766 106.311 47.4665C106.13 47.0565 106.039 46.6091 106.039 46.1244C106.039 45.6451 106.13 45.1977 106.311 44.7876C106.492 44.3722 106.737 44.0154 107.051 43.7172C107.36 43.4136 107.717 43.1792 108.122 43.0088C108.526 42.8384 108.958 42.7532 109.41 42.7532C109.863 42.7532 110.294 42.8384 110.699 43.0088C111.104 43.1792 111.461 43.4136 111.77 43.7172C112.078 44.0207 112.324 44.3776 112.505 44.7876C112.686 45.1977 112.776 45.6451 112.776 46.1244ZM107.759 45.4321C107.669 45.6451 107.621 45.8741 107.621 46.1191C107.621 46.3694 107.663 46.5931 107.759 46.8008C107.85 47.0085 107.978 47.1843 108.137 47.3334C108.297 47.4825 108.489 47.5997 108.707 47.6796C108.926 47.7595 109.16 47.802 109.405 47.802C109.656 47.802 109.884 47.7595 110.097 47.6796C110.31 47.5943 110.502 47.4825 110.662 47.3334C110.822 47.1843 110.949 47.0085 111.045 46.8008C111.141 46.5931 111.189 46.3694 111.189 46.1191C111.189 45.8741 111.141 45.6398 111.045 45.4321C110.949 45.219 110.822 45.0433 110.662 44.8941C110.502 44.7451 110.31 44.6279 110.097 44.548C109.884 44.4681 109.65 44.4255 109.405 44.4255C109.16 44.4255 108.926 44.4681 108.707 44.548C108.489 44.6279 108.297 44.7451 108.137 44.8941C107.978 45.0433 107.85 45.2244 107.759 45.4321Z" fill="#EA0029"/> <path d="M116.41 42.9238C116.735 42.9238 117.034 42.9611 117.316 43.0356C117.598 43.1102 117.838 43.2221 118.046 43.3765C118.253 43.5309 118.413 43.7174 118.535 43.9464C118.658 44.1754 118.717 44.4417 118.717 44.7452C118.717 45.0115 118.679 45.2246 118.599 45.395C118.52 45.5654 118.402 45.7252 118.248 45.8743C118.488 46.0288 118.685 46.2258 118.839 46.4655C118.993 46.6998 119.068 46.9981 119.068 47.3655C119.068 47.6798 119.004 47.9567 118.876 48.1964C118.748 48.436 118.578 48.6384 118.36 48.8036C118.147 48.9686 117.896 49.0965 117.609 49.1817C117.321 49.2669 117.023 49.3095 116.709 49.3095H113.955V42.9238H116.41ZM115.468 44.3884V45.4696H116.581C116.773 45.4696 116.922 45.4163 117.028 45.3098C117.135 45.2033 117.188 45.0808 117.188 44.937C117.188 44.7879 117.135 44.66 117.028 44.5535C116.922 44.447 116.767 44.3938 116.57 44.3938H115.468V44.3884ZM115.468 46.7424V47.8449H116.916C117.098 47.8449 117.241 47.7916 117.353 47.6904C117.459 47.5893 117.513 47.4507 117.513 47.2857C117.513 47.1472 117.459 47.0194 117.353 46.9075C117.247 46.7957 117.098 46.7424 116.906 46.7424H115.468Z" fill="#EA0029"/> <path d="M124.851 42.9238V49.3095H123.275V47.4135H122.753L121.464 49.3095H119.643L121.091 47.1792C120.719 46.9874 120.431 46.7265 120.223 46.3963C120.015 46.066 119.915 45.6666 119.915 45.1926C119.915 44.8358 119.978 44.5216 120.101 44.2393C120.223 43.957 120.393 43.7227 120.607 43.5256C120.82 43.3339 121.075 43.1848 121.374 43.0783C121.672 42.9771 121.992 42.9238 122.327 42.9238H124.851ZM122.215 44.5109C121.981 44.5109 121.799 44.5802 121.672 44.7133C121.539 44.8518 121.475 45.0115 121.475 45.2033C121.475 45.4003 121.544 45.5601 121.688 45.6826C121.826 45.8051 122.007 45.8637 122.22 45.8637H123.285V44.5109H122.215Z" fill="#EA0029"/> <path d="M131.396 44.5961H129.426V49.3095H127.855V44.5961H125.879V42.9238H131.396V44.5961Z" fill="#EA0029"/> <path d="M137.729 48.34C137.538 48.6542 137.229 48.9205 136.797 49.1442C136.366 49.3679 135.866 49.4797 135.295 49.4797C134.848 49.4797 134.427 49.3945 134.023 49.2294C133.623 49.0643 133.266 48.8353 132.957 48.537C132.649 48.2388 132.403 47.8819 132.217 47.4719C132.036 47.0618 131.945 46.6037 131.945 46.1084C131.945 45.6131 132.036 45.1551 132.217 44.7451C132.398 44.3296 132.643 43.9781 132.957 43.6799C133.271 43.3816 133.623 43.1526 134.023 42.9928C134.422 42.8331 134.848 42.7532 135.295 42.7532C135.866 42.7532 136.36 42.865 136.776 43.0887C137.192 43.3124 137.495 43.5787 137.676 43.8822L137.229 45.1977C137.064 45.0007 136.829 44.8196 136.52 44.6652C136.217 44.5107 135.865 44.4308 135.466 44.4308C134.885 44.4308 134.427 44.5853 134.076 44.8941C133.729 45.2031 133.554 45.6131 133.554 46.1138C133.554 46.6197 133.729 47.0245 134.076 47.3387C134.422 47.653 134.885 47.8074 135.466 47.8074C135.871 47.8074 136.227 47.7275 136.531 47.5624C136.835 47.3973 137.074 47.2162 137.25 47.0192L137.729 48.34Z" fill="#EA0029"/> <path d="M143.545 42.9238V49.3095H141.968V47.4135H141.446L140.157 49.3095H138.336L139.785 47.1792C139.412 46.9874 139.125 46.7265 138.917 46.3963C138.709 46.066 138.608 45.6666 138.608 45.1926C138.608 44.8358 138.671 44.5216 138.794 44.2393C138.917 43.957 139.087 43.7227 139.3 43.5256C139.513 43.3339 139.774 43.1848 140.067 43.0783C140.365 42.9771 140.685 42.9238 141.02 42.9238H143.545ZM140.903 44.5109C140.669 44.5109 140.488 44.5802 140.36 44.7133C140.227 44.8518 140.163 45.0115 140.163 45.2033C140.163 45.4003 140.232 45.5601 140.376 45.6826C140.514 45.8051 140.695 45.8637 140.908 45.8637H141.974V44.5109H140.903Z" fill="#EA0029"/> <path d="M19.0604 42.9291L21.702 49.3148L19.806 49.3095L18.3041 45.5654L16.8076 49.3095H14.9062L17.5532 42.9238L19.0604 42.9291Z" fill="#EA0029"/> </g> <defs> <clipPath id="clip0_1177_379"> <rect width="188.593" height="37.2222" fill="white" transform="translate(14.8887 14.8889)"/> </clipPath> </defs> </svg>