<svg xmlns:xlink="http://www.w3.org/1999/xlink" xmlns="http://www.w3.org/2000/svg" width="60" height="60" viewBox="0 0 60 60" fill="none"> <path d="M5 33.5H3.5V36.5H5V33.5ZM55 36.5H56.5V33.5H55V36.5ZM22.5 53.5C21.6716 53.5 21 54.1716 21 55C21 55.8284 21.6716 56.5 22.5 56.5V53.5ZM37.5 56.5C38.3284 56.5 39 55.8284 39 55C39 54.1716 38.3284 53.5 37.5 53.5V56.5ZM31.5 45C31.5 44.1716 30.8284 43.5 30 43.5C29.1716 43.5 28.5 44.1716 28.5 45H31.5ZM12.5 6.5H47.5V3.5H12.5V6.5ZM53.5 12.5V37.5H56.5V12.5H53.5ZM47.5 43.5H12.5V46.5H47.5V43.5ZM6.5 37.5V12.5H3.5V37.5H6.5ZM12.5 43.5C9.18629 43.5 6.5 40.8137 6.5 37.5H3.5C3.5 42.4706 7.52944 46.5 12.5 46.5V43.5ZM53.5 37.5C53.5 40.8137 50.8137 43.5 47.5 43.5V46.5C52.4706 46.5 56.5 42.4706 56.5 37.5H53.5ZM47.5 6.5C50.8137 6.5 53.5 9.18629 53.5 12.5H56.5C56.5 7.52944 52.4706 3.5 47.5 3.5V6.5ZM12.5 3.5C7.52944 3.5 3.5 7.52944 3.5 12.5H6.5C6.5 9.18629 9.18629 6.5 12.5 6.5V3.5ZM5 36.5H55V33.5H5V36.5ZM22.5 56.5H30V53.5H22.5V56.5ZM30 56.5H37.5V53.5H30V56.5ZM31.5 55V45H28.5V55H31.5Z" fill="white"/> </svg>