<svg xmlns:xlink="http://www.w3.org/1999/xlink" xmlns="http://www.w3.org/2000/svg" width="86" height="85" viewBox="0 0 86 85" fill="none"><path d="M14.9856 58.3723C14.9856 61.1828 16.1021 63.8781 18.0894 65.8654C20.0767 67.8527 22.772 68.9692 25.5825 68.9692C25.5825 71.3112 26.5128 73.5573 28.1689 75.2134C29.825 76.8695 32.0711 77.7998 34.4132 77.7998C36.7552 77.7998 39.0013 76.8695 40.6574 75.2134C42.3135 73.5573 43.2438 71.3112 43.2438 68.9692C43.2438 71.3112 44.1742 73.5573 45.8303 75.2134C47.4864 76.8695 49.7325 77.7998 52.0745 77.7998C54.4166 77.7998 56.6627 76.8695 58.3188 75.2134C59.9749 73.5573 60.9052 71.3112 60.9052 68.9692C62.7839 68.9693 64.6288 68.47 66.251 67.5225C67.8732 66.5749 69.2143 65.2131 70.1369 63.5767C71.0596 61.9402 71.5306 60.0879 71.5017 58.2094C71.4728 56.331 70.9451 54.494 69.9726 52.8867C72.3903 52.4195 74.5699 51.1252 76.1373 49.2261C77.7046 47.3269 78.5619 44.9413 78.5619 42.4788C78.5619 40.0164 77.7046 37.6308 76.1373 35.7316C74.5699 33.8324 72.3903 32.5381 69.9726 32.071C70.946 30.4636 71.4745 28.6262 71.5038 26.7473C71.5331 24.8683 71.0623 23.0154 70.1395 21.3783C69.2168 19.7413 67.8753 18.3791 66.2526 17.4314C64.6299 16.4836 62.7844 15.9845 60.9052 15.985C60.9052 13.6429 59.9749 11.3968 58.3188 9.74075C56.6627 8.08467 54.4166 7.1543 52.0745 7.1543C49.7325 7.1543 47.4864 8.08467 45.8303 9.74075C44.1742 11.3968 43.2438 13.6429 43.2438 15.985C43.2438 13.6429 42.3135 11.3968 40.6574 9.74075C39.0013 8.08467 36.7552 7.1543 34.4132 7.1543C32.0711 7.1543 29.825 8.08467 28.1689 9.74075C26.5128 11.3968 25.5825 13.6429 25.5825 15.985C23.7038 15.9848 21.8589 16.4841 20.2367 17.4317C18.6145 18.3792 17.2734 19.741 16.3508 21.3775C15.4281 23.0139 14.9571 24.8663 14.986 26.7447C15.0149 28.6231 15.5426 30.4601 16.5151 32.0675C14.0974 32.5346 11.9178 33.8289 10.3504 35.7281C8.78305 37.6273 7.92578 40.0129 7.92578 42.4753C7.92578 44.9377 8.78305 47.3233 10.3504 49.2225C11.9178 51.1217 14.0974 52.416 16.5151 52.8832C15.5137 54.5389 14.9847 56.4373 14.9856 58.3723Z" stroke="white" stroke-width="4.46182" stroke-linecap="round" stroke-linejoin="round"/><path d="M27.3398 51.3084L33.8463 31.789C34.0096 31.3019 34.3219 30.8784 34.7389 30.5784C35.156 30.2783 35.6568 30.1169 36.1705 30.1169C36.6843 30.1169 37.1851 30.2783 37.6021 30.5784C38.0192 30.8784 38.3315 31.3019 38.4948 31.789L45.0012 51.3084M55.5981 30.1147V51.3084M30.8721 44.2439H41.469" stroke="white" stroke-width="4.46182" stroke-linecap="round" stroke-linejoin="round"/></svg>