<svg xmlns:xlink="http://www.w3.org/1999/xlink" xmlns="http://www.w3.org/2000/svg" width="139" height="139" viewBox="0 0 139 139" fill="none"><rect width="138.821" height="138.821" rx="9.25472" fill="white"/><path d="M22.6741 33.7798L26.6451 40.3872C26.8316 40.7069 27.0992 40.9717 27.4207 41.1551C27.7422 41.3384 28.1064 41.4337 28.4765 41.4314H110.344C110.716 41.4316 111.082 41.3355 111.406 41.1525C111.73 40.9696 112.001 40.7059 112.193 40.3872L116.147 33.7798H22.6741Z" fill="black"/><path d="M59.0464 49.7506H32.2593L36.2303 56.358C36.4194 56.6753 36.6875 56.9383 37.0085 57.1213C37.3294 57.3043 37.6923 57.401 38.0617 57.4022H56.342C56.6326 57.4022 56.9112 57.5176 57.1166 57.723C57.3221 57.9285 57.4375 58.2071 57.4375 58.4977V91.1582C57.4443 91.5438 57.5504 91.9211 57.7456 92.2537L65.0885 104.493V56.9571C65.0928 56.4721 64.9296 56.0005 64.6264 55.6219L60.7752 50.6064C60.5714 50.3413 60.3097 50.1263 60.0101 49.978C59.7104 49.8296 59.3808 49.7518 59.0464 49.7506Z" fill="black"/><path d="M78.0456 50.6064L74.1431 55.7417C73.8447 56.1229 73.682 56.5928 73.6809 57.0769V104.578L81.0239 92.3393C81.2269 92.01 81.3336 91.6305 81.332 91.2437V58.4977C81.332 58.2071 81.4474 57.9285 81.6528 57.723C81.8583 57.5176 82.1369 57.4022 82.4274 57.4022H100.776C101.146 57.4045 101.511 57.3092 101.832 57.1258C102.154 56.9425 102.421 56.6777 102.608 56.358L106.579 49.7506H79.7744C79.4403 49.7531 79.1111 49.8315 78.8116 49.9797C78.5122 50.128 78.2503 50.3423 78.0456 50.6064Z" fill="black"/></svg>