<svg xmlns:xlink="http://www.w3.org/1999/xlink" xmlns="http://www.w3.org/2000/svg" width="60" height="60" viewBox="0 0 60 60" fill="none"> <path d="M32.1212 10H27.8788C25.5357 10 23.6363 11.7909 23.6363 14V16.2418C23.6363 17.7592 22.0128 18.7239 20.6801 17.9984L18.4856 16.8038C16.4564 15.6993 13.8618 16.3548 12.6903 18.2679L10.5691 21.732C9.39755 23.6452 10.0928 26.0916 12.1219 27.1961L14.0458 28.2434C15.4375 29.001 15.4375 30.999 14.0458 31.7566L12.1219 32.8039C10.0928 33.9084 9.39755 36.3548 10.5691 38.268L12.6903 41.7321C13.8618 43.6452 16.4564 44.3007 18.4856 43.1962L20.6801 42.0016C22.0128 41.2761 23.6363 42.2408 23.6363 43.7582V46C23.6363 48.2091 25.5357 50 27.8788 50H32.1212C34.4642 50 36.3636 48.2091 36.3636 46V43.7581C36.3636 42.2408 37.9872 41.2761 39.3199 42.0015L41.5144 43.1961C43.5435 44.3007 46.1382 43.6452 47.3097 41.732L49.4309 38.2679C50.6024 36.3548 49.9072 33.9084 47.8781 32.8038L45.9543 31.7566C44.5625 30.999 44.5625 29.001 45.9543 28.2434L47.8781 27.1962C49.9072 26.0916 50.6024 23.6452 49.4309 21.7321L47.3097 18.268C46.1382 16.3548 43.5435 15.6993 41.5144 16.8039L39.3199 17.9985C37.9872 18.7239 36.3636 17.7592 36.3636 16.2419V14C36.3636 11.7909 34.4642 10 32.1212 10Z" stroke="white" stroke-width="3" stroke-linejoin="round"/> <circle cx="30" cy="30" r="7.5" stroke="white" stroke-width="3"/> </svg>