<svg xmlns:xlink="http://www.w3.org/1999/xlink" xmlns="http://www.w3.org/2000/svg" width="100" height="100" viewBox="0 0 100 100" fill="none"><path opacity="0.5" d="M20.2424 30.6982C25.8996 30.6982 30.4858 26.065 30.4858 20.3496C30.4858 14.6342 25.8996 10.001 20.2424 10.001C14.5851 10.001 9.99902 14.6342 9.99902 20.3496C9.99902 26.065 14.5851 30.6982 20.2424 30.6982Z" fill="url(#paint0_linear_2030_655)"/><path opacity="0.5" d="M79.7531 30.7021C85.4104 30.7021 89.9965 26.0689 89.9965 20.3535C89.9965 14.6381 85.4104 10.0049 79.7531 10.0049C74.0959 10.0049 69.5098 14.6381 69.5098 20.3535C69.5098 26.0689 74.0959 30.7021 79.7531 30.7021Z" fill="url(#paint1_linear_2030_655)"/><path opacity="0.5" d="M50.0061 60.3535C55.6633 60.3535 60.2494 55.7202 60.2494 50.0049C60.2494 44.2895 55.6633 39.6562 50.0061 39.6562C44.3488 39.6562 39.7627 44.2895 39.7627 50.0049C39.7627 55.7202 44.3488 60.3535 50.0061 60.3535Z" fill="url(#paint2_linear_2030_655)"/><path opacity="0.5" d="M20.2434 89.999C25.9006 89.999 30.4867 85.3658 30.4867 79.6504C30.4867 73.935 25.9006 69.3018 20.2434 69.3018C14.5861 69.3018 10 73.935 10 79.6504C10 85.3658 14.5861 89.999 20.2434 89.999Z" fill="url(#paint3_linear_2030_655)"/><path opacity="0.5" d="M79.7531 89.999C85.4104 89.999 89.9965 85.3658 89.9965 79.6504C89.9965 73.935 85.4104 69.3018 79.7531 69.3018C74.0959 69.3018 69.5098 73.935 69.5098 79.6504C69.5098 85.3658 74.0959 89.999 79.7531 89.999Z" fill="url(#paint4_linear_2030_655)"/><path d="M50.9823 69.3516C50.9 69.3447 50.8143 69.3377 50.732 69.3308C46.8569 69.0571 43.2081 67.3907 40.444 64.6363L35.2383 59.4499C32.4537 56.6748 30.7974 52.9746 30.4407 49.0389C30.4373 49.0008 30.4339 48.9592 30.4304 48.9211C29.9332 43.998 25.9415 40.0692 21.0547 39.6881C14.7516 39.1961 9.5356 44.4726 10.0329 50.8439C10.4204 55.8052 14.3538 59.8449 19.2577 60.3056C19.34 60.3126 19.4258 60.3195 19.5081 60.3264C23.3832 60.6001 27.032 62.2666 29.7994 65.0209L35.0051 70.2073C37.7897 72.9824 39.4461 76.6826 39.8028 80.6183C39.8062 80.6564 39.8096 80.698 39.813 80.7361C40.3103 85.6592 44.3055 89.588 49.1888 89.9691C55.4919 90.4611 60.7079 85.1846 60.2106 78.8133C59.8231 73.852 55.8863 69.8124 50.9858 69.3516H50.9823Z" fill="url(#paint5_linear_2030_655)"/><path d="M80.6121 39.6905C80.5709 39.6905 80.5332 39.6836 80.492 39.6801C76.4729 39.3926 72.6766 37.7296 69.8269 34.8506L64.9641 29.9378C62.1829 27.1281 60.5403 23.3967 60.2008 19.4333C60.2008 19.3952 60.1939 19.3536 60.1905 19.3155C59.7172 14.382 55.7289 10.4289 50.8387 10.034C44.5219 9.52468 39.2854 14.8116 39.7895 21.1968C40.1804 26.1407 44.0898 30.1665 48.9766 30.6481C49.0143 30.6515 49.0555 30.655 49.0932 30.6584C53.0129 30.998 56.7063 32.661 59.4909 35.4707L64.7686 40.8027C67.5086 43.5708 69.1616 47.2259 69.5731 51.1201C69.5765 51.1582 69.5799 51.1963 69.5868 51.2344C70.1526 56.1021 74.1272 59.9478 78.9626 60.3185C85.2485 60.7966 90.4473 55.5374 89.9672 49.1869C89.5866 44.1702 85.5777 40.0994 80.6121 39.6871V39.6905Z" fill="url(#paint6_linear_2030_655)"/><defs><linearGradient id="paint0_linear_2030_655" x1="9.99902" y1="20.3496" x2="30.4858" y2="20.3496" gradientUnits="userSpaceOnUse"><stop stop-color="#00C6FB"/><stop offset="1" stop-color="#005BEA"/></linearGradient><linearGradient id="paint1_linear_2030_655" x1="69.5098" y1="20.3535" x2="89.9965" y2="20.3535" gradientUnits="userSpaceOnUse"><stop stop-color="#00C6FB"/><stop offset="1" stop-color="#005BEA"/></linearGradient><linearGradient id="paint2_linear_2030_655" x1="39.7627" y1="50.0049" x2="60.2494" y2="50.0049" gradientUnits="userSpaceOnUse"><stop stop-color="#00C6FB"/><stop offset="1" stop-color="#005BEA"/></linearGradient><linearGradient id="paint3_linear_2030_655" x1="10" y1="79.6504" x2="30.4867" y2="79.6504" gradientUnits="userSpaceOnUse"><stop stop-color="#00C6FB"/><stop offset="1" stop-color="#005BEA"/></linearGradient><linearGradient id="paint4_linear_2030_655" x1="69.5098" y1="79.6504" x2="89.9965" y2="79.6504" gradientUnits="userSpaceOnUse"><stop stop-color="#00C6FB"/><stop offset="1" stop-color="#005BEA"/></linearGradient><linearGradient id="paint5_linear_2030_655" x1="10" y1="64.8286" x2="60.2435" y2="64.8286" gradientUnits="userSpaceOnUse"><stop stop-color="#00C6FB"/><stop offset="1" stop-color="#005BEA"/></linearGradient><linearGradient id="paint6_linear_2030_655" x1="39.7559" y1="35.1744" x2="89.998" y2="35.1744" gradientUnits="userSpaceOnUse"><stop stop-color="#00C6FB"/><stop offset="1" stop-color="#005BEA"/></linearGradient></defs></svg>