<svg xmlns:xlink="http://www.w3.org/1999/xlink" xmlns="http://www.w3.org/2000/svg" width="685" height="193" viewBox="0 0 685 193" fill="none"> <g clip-path="url(#clip0_931_5987)"> <path fill-rule="evenodd" clip-rule="evenodd" d="M314.891 157.353H167.156L185.048 176.194H293.932L314.891 157.353Z" fill="#033DA8"/> <path fill-rule="evenodd" clip-rule="evenodd" d="M187.609 92.6807H23.5156L44.4746 120.179H189.142C186.767 114.371 185.72 108.109 186.075 101.847C186.225 98.7422 186.739 95.6658 187.609 92.6807Z" fill="#033DA8"/> <path fill-rule="evenodd" clip-rule="evenodd" d="M370.098 157.353H517.833L499.941 176.194H391.057L370.098 157.353Z" fill="#033DA8"/> <path fill-rule="evenodd" clip-rule="evenodd" d="M497.393 92.6807H661.486L640.527 120.179H495.859C498.234 114.371 499.282 108.109 498.927 101.847C498.777 98.7422 498.262 95.6658 497.393 92.6807Z" fill="#033DA8"/> <path fill-rule="evenodd" clip-rule="evenodd" d="M466.215 61.1084H685.006L664.558 87.0794H495.864C493.332 80.7257 489.325 75.0598 484.171 70.5456C479.018 66.0315 472.865 62.7975 466.215 61.1084Z" fill="#033DA8"/> <path fill-rule="evenodd" clip-rule="evenodd" d="M218.28 61.1084H0L19.4254 87.0794H189.142C191.624 80.7835 195.553 75.1548 200.613 70.6446C205.673 66.1345 211.724 62.8684 218.28 61.1084Z" fill="#033DA8"/> <path fill-rule="evenodd" clip-rule="evenodd" d="M329.205 75.876L300.578 143.604H322.559L328.183 127.309H357.832L363.966 143.604H385.436L357.832 75.876H329.205ZM333.295 113.559L342.496 88.0976L351.186 113.559H333.295Z" fill="#033DA8"/> <path fill-rule="evenodd" clip-rule="evenodd" d="M332.272 132.91L327.16 146.66L342.496 172.63L357.321 146.66L352.72 132.91H332.272Z" fill="#033DA8"/> <path d="M237.198 75.876H216.75V143.604H237.198V75.876Z" fill="#033DA8"/> <path fill-rule="evenodd" clip-rule="evenodd" d="M325.631 70.2742H358.859L377.262 113.05L386.975 96.7544L342.501 20.3691L297.516 96.7544L307.228 113.05L325.631 70.2742Z" fill="#033DA8"/> <path fill-rule="evenodd" clip-rule="evenodd" d="M285.246 75.876H263.775L242.816 109.995L263.775 143.604H285.246L264.798 109.995L285.246 75.876Z" fill="#033DA8"/> <path fill-rule="evenodd" clip-rule="evenodd" d="M416.627 75.876H396.18V143.604H422.762L446.277 101.847V143.604H467.236V75.876H446.277H440.654L416.627 118.142V75.876Z" fill="#033DA8"/> <path fill-rule="evenodd" clip-rule="evenodd" d="M493.817 124.763C489.953 132.607 483.688 139.026 475.926 143.095V66.7098H435.03L425.317 84.0237V66.7098H386.978V76.3852L341.993 0L285.25 96.2454L300.075 121.198L292.918 139.021L275.026 109.485L301.097 66.7098H258.157L246.399 86.5699V66.7098H208.06V142.586C200.734 138.509 194.845 132.287 191.191 124.763H110.422L133.937 152.77H246.399V132.91L258.157 152.77H318.478L341.993 193.509L366.019 152.77H427.873L437.586 135.966V152.77H551.071L574.586 125.272L493.817 124.763ZM472.858 149.206H441.164V122.726L425.829 149.206H357.84L340.459 179.251L322.567 149.206H260.202L243.332 120.689V149.206H211.638V70.2744H243.332V98.7916L260.202 70.2744H295.474L271.448 109.995L293.941 146.66L306.72 117.124L294.963 96.7546L342.504 13.7493L390.556 96.2454V70.2744H422.25V97.2638L437.075 70.2744H472.858V149.206Z" fill="#033DA8"/> <path fill-rule="evenodd" clip-rule="evenodd" d="M390.55 145.641V94.7178L378.793 115.087L390.55 145.641ZM386.972 128.327L383.905 121.198L386.972 116.106V128.327Z" fill="#033DA8"/> <path fill-rule="evenodd" clip-rule="evenodd" d="M446.276 75.876H467.235V143.604H446.276V101.847L422.761 143.604H396.179V75.876H416.627V117.633L440.653 75.876H446.276ZM263.269 75.876H285.25L264.802 109.995L285.25 143.604H263.269L242.821 109.995L263.269 75.876ZM216.75 75.876H237.709V143.604H216.75V75.876ZM357.84 75.876H329.213L300.586 143.604H322.567L328.19 127.309H357.84L363.974 143.604H385.444L357.84 75.876ZM345.06 88.0976L353.75 113.05H333.302L345.06 88.0976Z" fill="#033DA8"/> </g> <defs> <clipPath id="clip0_931_5987"> <rect width="685" height="193" fill="white"/> </clipPath> </defs> </svg>